<?xml version="1.0" encoding="utf-8"?>
<!-- Generator: Adobe Illustrator 27.0.0, SVG Export Plug-In . SVG Version: 6.00 Build 0)  -->
<svg version="1.1" id="Layer_1" xmlns="http://www.w3.org/2000/svg" xmlns:xlink="http://www.w3.org/1999/xlink" x="0px" y="0px"
	 viewBox="0 0 500 500" style="enable-background:new 0 0 500 500;" xml:space="preserve">
<style type="text/css">
	.st0{fill:#FCBED2;}
	.st1{fill:#FCE68B;}
	.st2{fill:#FB275D;}
	.st3{fill:#B9FCDA;}
	.st4{fill:#00CA72;}
	.st5{fill:#FFCC00;}
</style>
<path class="st0" d="M343.3,171.7H156.7c-28,0-51-22.9-51-51l0,0c0-28,22.9-51,51-51h186.5c28,0,51,22.9,51,51l0,0
	C394.2,148.8,371.3,171.7,343.3,171.7z"/>
<path class="st1" d="M343.3,437.6H156.7c-28,0-51-22.9-51-51l0,0c0-28,22.9-51,51-51h186.5c28,0,51,22.9,51,51l0,0
	C394.2,414.7,371.3,437.6,343.3,437.6z"/>
<circle class="st2" cx="157.3" cy="120.8" r="51.5"/>
<path class="st3" d="M343.3,305H156.7c-28,0-51-22.9-51-51l0,0c0-28,22.9-51,51-51h186.5c28,0,51,22.9,51,51l0,0
	C394.2,282,371.3,305,343.3,305z"/>
<circle class="st4" cx="157.3" cy="254" r="51.5"/>
<circle class="st5" cx="157.3" cy="387.2" r="51.5"/>
</svg>
