<?xml version="1.0" encoding="utf-8"?>
<!-- Generator: Adobe Illustrator 27.0.0, SVG Export Plug-In . SVG Version: 6.00 Build 0)  -->
<svg version="1.1" id="Layer_1" xmlns="http://www.w3.org/2000/svg" xmlns:xlink="http://www.w3.org/1999/xlink" x="0px" y="0px"
	 viewBox="0 0 500 500" style="enable-background:new 0 0 500 500;" xml:space="preserve">
<style type="text/css">
	.st0{fill:#0F101A;}
	.st1{fill:#FFFFFF;}
</style>
<path class="st0" d="M250,488.3L250,488.3C121.1,488.3,15.7,382.9,15.7,254l0,0C15.7,125.1,121.1,19.7,250,19.7l0,0
	c128.9,0,234.3,105.4,234.3,234.3l0,0C484.3,382.9,378.9,488.3,250,488.3z"/>
<g>
	<g>
		<path class="st1" d="M361.9,375v-81.6h3.2c-2.8,8-8.5,14.5-16.9,19.5s-17.9,7.5-28.4,7.5c-11.6,0-21.8-2.8-30.8-8.4
			s-16-13.7-20.9-24.4c-5-10.7-7.5-23.3-7.5-37.9s2.5-27.1,7.6-37.7c5.1-10.6,12-18.7,20.9-24.4s19.1-8.5,30.7-8.5
			c10.8,0,20.5,2.6,29.1,7.7c8.5,5.2,14.1,12,16.8,20.5h-2.9L366,182h42.4c-0.5,6.2-1,12.4-1.5,18.6c-0.4,6.2-0.6,12.4-0.6,18.6
			v111.6C406.1,355.2,386.3,375,361.9,375L361.9,375z M333.9,287.3c8.5,0,15.4-3,20.7-9.1c5.2-6,7.9-15.5,7.9-28.5
			s-2.6-22.4-7.9-28.4c-5.2-6-12.1-8.9-20.7-8.9c-8.5,0-15.5,3-20.8,8.9c-5.3,6-8,15.4-8,28.4s2.6,22.5,7.9,28.5
			C318.2,284.3,325.2,287.3,333.9,287.3z"/>
	</g>
	<g>
		<rect x="91.8" y="139.4" class="st1" width="148.1" height="39.9"/>
		<rect x="91.8" y="215.6" class="st1" width="103.8" height="39.9"/>
		<rect x="91.8" y="291.9" class="st1" width="148.1" height="39.9"/>
	</g>
</g>
</svg>
