<?xml version="1.0" encoding="utf-8"?>
<!-- Generator: Adobe Illustrator 27.0.0, SVG Export Plug-In . SVG Version: 6.00 Build 0)  -->
<svg version="1.1" id="Layer_1" xmlns="http://www.w3.org/2000/svg" xmlns:xlink="http://www.w3.org/1999/xlink" x="0px" y="0px"
	 viewBox="0 0 107 26" style="enable-background:new 0 0 107 26;" xml:space="preserve">
<style type="text/css">
	.st0{fill:#333333;}
	.st1{fill:#FCBED2;}
	.st2{fill:#FCE68B;}
	.st3{fill:#FB275D;}
	.st4{fill:#B9FCDA;}
	.st5{fill:#00CA72;}
	.st6{fill:#FFCC00;}
</style>
<g>
	<g>
		<path class="st0" d="M23.7,15.9H31v4H19.5V1.6h11.4v4h-7.2v3h6.5v4h-6.5V15.9z"/>
		<path class="st0" d="M42.7,6.8h3.9v18.3h-3.9v-6.5c-0.9,1.1-2.2,1.6-3.9,1.6s-3.2-0.7-4.4-2s-1.8-3-1.8-4.9s0.6-3.6,1.8-4.9
			s2.7-2,4.4-2s3,0.5,3.9,1.6V6.8z M37.4,15.7c0.6,0.6,1.3,0.9,2.2,0.9s1.7-0.3,2.2-0.9c0.6-0.6,0.9-1.3,0.9-2.3s-0.3-1.8-0.9-2.3
			c-0.6-0.6-1.3-0.9-2.2-0.9s-1.7,0.3-2.2,0.9c-0.6,0.6-0.9,1.3-0.9,2.3S36.8,15.1,37.4,15.7z"/>
		<path class="st0" d="M59,6.8h3.9v18.3H59v-6.5c-0.9,1.1-2.2,1.6-3.9,1.6s-3.2-0.7-4.4-2s-1.8-3-1.8-4.9s0.6-3.6,1.8-4.9
			s2.7-2,4.4-2s3,0.5,3.9,1.6V6.8z M53.6,15.7c0.6,0.6,1.3,0.9,2.2,0.9s1.7-0.3,2.2-0.9c0.6-0.6,0.9-1.3,0.9-2.3s-0.3-1.8-0.9-2.3
			c-0.6-0.6-1.3-0.9-2.2-0.9s-1.7,0.3-2.2,0.9c-0.6,0.6-0.9,1.3-0.9,2.3S53.1,15.1,53.6,15.7z"/>
		<path class="st0" d="M75.3,6.8h3.9v13.1h-3.9v-1.2c-0.9,1.1-2.2,1.6-3.9,1.6c-1.7,0-3.2-0.7-4.4-2c-1.2-1.3-1.8-3-1.8-4.9
			s0.6-3.6,1.8-4.9s2.7-2,4.4-2c1.7,0,3,0.5,3.9,1.6V6.8z M69.9,15.7c0.6,0.6,1.3,0.9,2.2,0.9s1.7-0.3,2.2-0.9
			c0.6-0.6,0.9-1.3,0.9-2.3S75,11.6,74.4,11s-1.3-0.9-2.2-0.9S70.5,10.4,70,11c-0.6,0.6-0.9,1.3-0.9,2.3S69.3,15.1,69.9,15.7z"/>
		<path class="st0" d="M82,19.9V0.8h4v19.1H82z"/>
		<path class="st0" d="M88.1,19.9V19H89v0.9H88.1z"/>
		<path class="st0" d="M92.3,20c-0.5,0-0.9-0.1-1.2-0.3c-0.3-0.2-0.6-0.5-0.8-0.9C90.1,18.4,90,18,90,17.5s0.1-0.9,0.3-1.3
			c0.2-0.4,0.4-0.7,0.8-0.9c0.3-0.2,0.7-0.3,1.2-0.3s0.9,0.1,1.3,0.4c0.4,0.2,0.6,0.6,0.7,1l-0.8,0.2c-0.1-0.3-0.3-0.5-0.5-0.6
			c-0.2-0.2-0.5-0.2-0.8-0.2s-0.6,0.1-0.8,0.2c-0.2,0.1-0.4,0.4-0.5,0.6s-0.2,0.6-0.2,0.9c0,0.5,0.1,0.9,0.4,1.3s0.6,0.5,1.1,0.5
			c0.3,0,0.6-0.1,0.8-0.2c0.2-0.1,0.4-0.3,0.5-0.6l0.8,0.2c-0.2,0.4-0.4,0.8-0.8,1C93.2,19.9,92.8,20,92.3,20z"/>
		<path class="st0" d="M97.2,20c-0.5,0-0.9-0.1-1.2-0.3c-0.3-0.2-0.6-0.5-0.8-0.9C95.1,18.5,95,18,95,17.5s0.1-0.9,0.3-1.3
			s0.4-0.7,0.8-0.9c0.3-0.2,0.7-0.3,1.2-0.3s0.9,0.1,1.2,0.3c0.3,0.2,0.6,0.5,0.8,0.9s0.3,0.8,0.3,1.3s-0.1,0.9-0.3,1.3
			c-0.2,0.4-0.4,0.7-0.8,0.9C98.1,19.9,97.7,20,97.2,20z M97.2,19.3c0.5,0,0.8-0.2,1.1-0.5c0.2-0.3,0.4-0.7,0.4-1.3
			c0-0.5-0.1-1-0.4-1.3s-0.6-0.5-1.1-0.5c-0.3,0-0.6,0.1-0.8,0.2c-0.2,0.1-0.4,0.4-0.5,0.6c-0.1,0.3-0.2,0.6-0.2,0.9
			c0,0.5,0.1,1,0.4,1.3C96.4,19.1,96.8,19.3,97.2,19.3z"/>
		<path class="st0" d="M100.5,19.9v-4.7h0.7v1.3h0.1v3.4H100.5z M103.3,19.9v-3c0-0.4-0.1-0.6-0.3-0.8c-0.2-0.2-0.4-0.3-0.7-0.3
			c-0.3,0-0.6,0.1-0.7,0.3c-0.2,0.2-0.3,0.5-0.3,0.8l-0.4-0.2c0-0.3,0.1-0.6,0.2-0.8s0.3-0.4,0.6-0.6c0.2-0.1,0.5-0.2,0.8-0.2
			s0.6,0.1,0.8,0.2c0.2,0.1,0.4,0.3,0.5,0.6c0.1,0.2,0.2,0.5,0.2,0.9V20h-0.7V19.9z M106.1,19.9v-3c0-0.4-0.1-0.6-0.3-0.8
			c-0.2-0.2-0.4-0.3-0.7-0.3c-0.2,0-0.3,0-0.5,0.1c-0.2,0.1-0.3,0.2-0.4,0.4s-0.1,0.4-0.1,0.6l-0.4-0.2c0-0.3,0.1-0.6,0.2-0.9
			c0.1-0.3,0.3-0.4,0.6-0.6c0.2-0.1,0.5-0.2,0.8-0.2c0.5,0,0.9,0.2,1.2,0.4c0.3,0.3,0.4,0.7,0.4,1.2v3.2L106.1,19.9L106.1,19.9z"/>
	</g>
</g>
<path class="st1" d="M12.3,6.7H3.1c-1.4,0-2.5-1.1-2.5-2.5l0,0c0-1.4,1.1-2.5,2.5-2.5h9.2c1.4,0,2.5,1.1,2.5,2.5l0,0
	C14.9,5.6,13.7,6.7,12.3,6.7z"/>
<path class="st2" d="M12.3,19.8H3.1c-1.4,0-2.5-1.1-2.5-2.5l0,0c0-1.4,1.1-2.5,2.5-2.5h9.2c1.4,0,2.5,1.1,2.5,2.5l0,0
	C14.9,18.7,13.7,19.8,12.3,19.8z"/>
<circle class="st3" cx="3.1" cy="4.2" r="2.5"/>
<path class="st4" d="M12.3,13.3H3.1c-1.4,0-2.5-1.1-2.5-2.5l0,0c0-1.4,1.1-2.5,2.5-2.5h9.2c1.4,0,2.5,1.1,2.5,2.5l0,0
	C14.9,12.1,13.7,13.3,12.3,13.3z"/>
<circle class="st5" cx="3.1" cy="10.8" r="2.5"/>
<circle class="st6" cx="3.1" cy="17.3" r="2.5"/>
</svg>
