<?xml version="1.0" encoding="utf-8"?>
<!-- Generator: Adobe Illustrator 27.0.0, SVG Export Plug-In . SVG Version: 6.00 Build 0)  -->
<svg version="1.1" id="Layer_1" xmlns="http://www.w3.org/2000/svg" xmlns:xlink="http://www.w3.org/1999/xlink" x="0px" y="0px"
	 viewBox="0 0 107 26" style="enable-background:new 0 0 107 26;" xml:space="preserve">
<g>
	<g>
		<path d="M40.9,25.5v-8.1h0.3c-0.3,0.8-0.8,1.4-1.7,1.9c-0.8,0.5-1.8,0.7-2.8,0.7c-1.1,0-2.2-0.3-3-0.8c-0.9-0.6-1.6-1.4-2.1-2.4
			c-0.5-1.1-0.7-2.3-0.7-3.7c0-1.4,0.3-2.7,0.8-3.7c0.5-1,1.2-1.8,2.1-2.4c0.9-0.6,1.9-0.8,3-0.8c1.1,0,2,0.3,2.9,0.8
			c0.8,0.5,1.4,1.2,1.7,2H41l0.3-2.5h4.2c-0.1,0.6-0.1,1.2-0.1,1.8c0,0.6-0.1,1.2-0.1,1.8v11C45.3,23.6,43.3,25.5,40.9,25.5
			L40.9,25.5z M38.2,16.9c0.8,0,1.5-0.3,2-0.9c0.5-0.6,0.8-1.5,0.8-2.8c0-1.3-0.3-2.2-0.8-2.8c-0.5-0.6-1.2-0.9-2-0.9
			c-0.8,0-1.5,0.3-2.1,0.9c-0.5,0.6-0.8,1.5-0.8,2.8c0,1.3,0.3,2.2,0.8,2.8C36.6,16.6,37.3,16.9,38.2,16.9z"/>
		<path d="M57.7,25.5v-8.1h0.3c-0.3,0.8-0.8,1.4-1.7,1.9c-0.8,0.5-1.8,0.7-2.8,0.7c-1.1,0-2.2-0.3-3-0.8c-0.9-0.6-1.6-1.4-2.1-2.4
			c-0.5-1.1-0.7-2.3-0.7-3.7c0-1.4,0.3-2.7,0.8-3.7c0.5-1,1.2-1.8,2.1-2.4c0.9-0.6,1.9-0.8,3-0.8c1.1,0,2,0.3,2.9,0.8
			c0.8,0.5,1.4,1.2,1.7,2h-0.3l0.3-2.5h4.2c-0.1,0.6-0.1,1.2-0.1,1.8c0,0.6-0.1,1.2-0.1,1.8v11C62.1,23.6,60.2,25.5,57.7,25.5
			L57.7,25.5z M55,16.9c0.8,0,1.5-0.3,2-0.9c0.5-0.6,0.8-1.5,0.8-2.8c0-1.3-0.3-2.2-0.8-2.8c-0.5-0.6-1.2-0.9-2-0.9
			s-1.5,0.3-2.1,0.9c-0.5,0.6-0.8,1.5-0.8,2.8c0,1.3,0.3,2.2,0.8,2.8C53.4,16.6,54.1,16.9,55,16.9z"/>
		<path d="M70.4,20.1c-1.1,0-2.2-0.3-3-0.8c-0.9-0.6-1.6-1.4-2.1-2.4c-0.5-1.1-0.7-2.3-0.7-3.7c0-1.4,0.3-2.7,0.8-3.7
			c0.5-1,1.2-1.8,2.1-2.4c0.9-0.6,1.9-0.8,3-0.8c1.1,0,2,0.3,2.9,0.8c0.8,0.5,1.4,1.2,1.7,2h-0.3L75,6.5h4.2C79.1,7.1,79,7.7,79,8.3
			c0,0.6-0.1,1.2-0.1,1.8v9.7h-2c-1.3,0-2.4-1.1-2.4-2.4v0h0.3c-0.3,0.8-0.8,1.4-1.7,1.9C72.4,19.9,71.4,20.1,70.4,20.1z M71.8,16.9
			c0.8,0,1.5-0.3,2-0.9c0.5-0.6,0.8-1.5,0.8-2.8c0-1.3-0.3-2.2-0.8-2.8c-0.5-0.6-1.2-0.9-2-0.9s-1.5,0.3-2.1,0.9
			c-0.5,0.6-0.8,1.5-0.8,2.8c0,1.3,0.3,2.2,0.8,2.8C70.3,16.6,70.9,16.9,71.8,16.9z"/>
		<path d="M82,19.8V0.5h4.4v19.4H82z"/>
	</g>
	<g>
		<rect x="14.3" y="2.3" width="14.6" height="3.9"/>
		<rect x="14.3" y="9.8" width="10.3" height="3.9"/>
		<rect x="14.3" y="17.3" width="14.6" height="3.9"/>
	</g>
</g>
</svg>
